<svg xmlns="http://www.w3.org/2000/svg" viewBox="27 308 1022 719"><path d="M421 569c39 50 100 91 165 91c56 0 83 -36 100 -83c43 51 121 115 193 115c86 0 52 -132 125 -132c16 0 31 4 45 9v-15c-41 -21 -79 -48 -111 -80c-30 -59 -32 -132 -32 -197c0 -47 0 -107 10 -139c7 -22 29 -58 54 -58c6 0 37 10 58 21v-19l-144 -109l-57 126l-1 172 c0 43 7 86 16 128c22 34 49 64 80 91c-18 2 -27 20 -43 69c-16 47 -25 69 -59 69c-57 0 -97 -37 -125 -82c6 -31 14 -79 14 -110c0 -106 -23 -211 -64 -308l-123 -150c-18 17 -50 43 -69 43c-29 0 -41 -14 -59 -35l-13 14c35 50 78 104 104 104c19 0 43 -14 79 -38 c56 56 54 192 54 301c0 97 0 234 -101 234c-46 0 -74 -35 -93 -72c7 -28 10 -75 10 -82c0 -113 -13 -227 -72 -325l-170 -149c-22 23 -57 53 -85 53c-29 0 -52 -20 -69 -42l-11 16c26 44 71 106 117 106c32 0 66 -30 97 -58c17 13 34 28 52 46c26 26 35 69 43 104 c12 56 17 112 17 169v41c0 111 -63 222 -158 222c-68 0 -99 -35 -99 -66c0 -81 91 -112 91 -175c0 -64 -64 -104 -123 -134l-15 11c31 17 64 49 64 81c0 10 -7 19 -13 27c-31 44 -72 80 -72 133c0 40 23 70 51 98c24 24 97 86 183 86c69 0 127 -69 152 -130c3 2 5 5 7 8z " transform="translate(0,1000) scale(1, -1)"></path></svg>