<svg xmlns="http://www.w3.org/2000/svg" xmlns:xlink="http://www.w3.org/1999/xlink" width="770.568" height="143.463" viewBox="0 0 192.642 35.866"><style><![CDATA[.B{overflow:visible}.C{stroke:none}.D{fill:rgb(0%,0%,0%)}]]></style><defs><symbol id="A" class="B"><path d="M3.313-.75c.047.391.313.813.781.813.219 0 .828-.141.828-.953v-.562h-.25v.563c0 .578-.25.641-.359.641-.328 0-.375-.453-.375-.5v-1.984c0-.422 0-.812-.359-1.187-.391-.391-.891-.547-1.359-.547-.828 0-1.516.469-1.516 1.125a.44.44 0 0 0 .469.469c.281 0 .453-.203.453-.453 0-.125-.047-.453-.516-.453.281-.359.766-.469 1.078-.469.5 0 1.063.391 1.063 1.281v.359c-.516.031-1.203.063-1.828.359-.75.344-1 .859-1 1.297 0 .813.969 1.063 1.594 1.063A1.38 1.38 0 0 0 3.313-.75zM3.25-2.391v1c0 .938-.719 1.281-1.172 1.281-.484 0-.891-.344-.891-.844 0-.547.422-1.375 2.063-1.437zm0 0" class="C"/></symbol><symbol id="B" class="B"><path d="M2.547 2.5v-.406h-.969v-9.172h.969v-.406H1.172V2.5zm0 0" class="C"/></symbol><symbol id="C" class="B"><path d="M1.578-7.484H.219v.406h.969v9.172H.219V2.5h1.359zm0 0" class="C"/></symbol><symbol id="D" class="B"><path d="M1.719-3.766v-3.156l-1.437.109v.313c.703 0 .781.063.781.563V0h.25c0-.016.078-.156.359-.625.141.234.563.734 1.297.734 1.188 0 2.219-.984 2.219-2.266 0-1.266-.969-2.25-2.109-2.25-.781 0-1.203.469-1.359.641zm.031 2.625v-2.047c0-.187 0-.203.109-.359.391-.562.938-.641 1.172-.641.453 0 .813.266 1.047.641.266.406.281.969.281 1.391 0 .359-.016.953-.297 1.406-.219.313-.594.641-1.125.641-.453 0-.812-.234-1.047-.609-.141-.203-.141-.234-.141-.422zm0 0" class="C"/></symbol><symbol id="E" class="B"><path d="M3.297 2.391c0-.031 0-.047-.172-.219C1.891.922 1.563-.969 1.563-2.5c0-1.734.375-3.469 1.609-4.703.125-.125.125-.141.125-.172 0-.078-.031-.109-.094-.109-.109 0-1 .688-1.594 1.953C1.109-4.437.984-3.328.984-2.5c0 .781.109 1.984.656 3.125C2.25 1.844 3.094 2.5 3.203 2.5c.063 0 .094-.031.094-.109zm0 0" class="C"/></symbol><symbol id="F" class="B"><path d="M2.875-2.5c0-.766-.109-1.969-.656-3.109C1.625-6.828.766-7.484.672-7.484c-.062 0-.109.047-.109.109 0 .031 0 .047.188.234.984.984 1.547 2.563 1.547 4.641 0 1.719-.359 3.469-1.594 4.719-.141.125-.141.141-.141.172 0 .063.047.109.109.109.094 0 1-.687 1.578-1.953.516-1.094.625-2.203.625-3.047zm0 0" class="C"/></symbol><symbol id="G" class="B"><path d="M2.25-6.031c0-.359.016-.469.813-.469h.25v-.312c-.344.031-1.125.031-1.516.031-.375 0-1.172 0-1.516-.031v.313h.25c.797 0 .828.109.828.469v5.25c0 .359-.031.469-.828.469h-.25V0c.344-.031 1.141-.031 1.516-.031L3.313 0v-.312h-.25c-.797 0-.812-.109-.812-.469zm0 0" class="C"/></symbol><symbol id="H" class="B"><path d="M3.328-3.016c.063-.25.297-1.172.984-1.172.047 0 .297 0 .5.125-.281.063-.469.297-.469.547 0 .156.109.344.375.344.219 0 .531-.172.531-.578 0-.516-.578-.656-.922-.656-.578 0-.922.531-1.047.75a1.09 1.09 0 0 0-1.078-.75C1.172-4.406.594-3.125.594-2.875c0 .109.109.109.125.109.078 0 .109-.031.125-.109.344-1.062 1-1.312 1.344-1.312.188 0 .531.094.531.672 0 .313-.172.969-.531 2.375-.156.609-.516 1.031-.953 1.031-.062 0-.281 0-.5-.125.25-.062.469-.266.469-.547 0-.266-.219-.344-.359-.344-.312 0-.547.25-.547.578 0 .453.484.656.922.656.672 0 1.031-.703 1.047-.75a1.12 1.12 0 0 0 1.078.75c1.031 0 1.594-1.281 1.594-1.531 0-.109-.078-.109-.109-.109-.094 0-.109.047-.141.109-.328 1.078-1 1.313-1.312 1.313-.391 0-.547-.312-.547-.656 0-.219.047-.437.156-.875zm0 0" class="C"/></symbol><symbol id="I" class="B"><path d="M2.031-.016c0-.656-.25-1.047-.641-1.047-.328 0-.531.25-.531.531 0 .266.203.531.531.531a.58.58 0 0 0 .344-.125c.031-.031.047-.031.047-.031.016 0 .016 0 .016.141 0 .75-.344 1.344-.672 1.672-.109.109-.109.125-.109.156 0 .078.047.109.094.109.109 0 .922-.766.922-1.937zm0 0" class="C"/></symbol><symbol id="J" class="B"><path d="M1.906-.531c0-.281-.234-.531-.516-.531-.297 0-.531.25-.531.531 0 .297.234.531.531.531.281 0 .516-.234.516-.531zm0 0" class="C"/></symbol><symbol id="K" class="B"><path d="M1.328-.828c.531-.578.828-.828 1.188-1.141l.969-.891c.953-.922 1.172-1.406 1.172-1.453 0-.094-.094-.094-.109-.094-.078 0-.094.016-.156.109-.297.484-.5.641-.734.641-.25 0-.359-.156-.516-.328-.187-.219-.359-.422-.687-.422-.75 0-1.203.922-1.203 1.141 0 .047.031.109.109.109.094 0 .109-.047.141-.109.188-.469.766-.469.844-.469.203 0 .391.063.625.141.406.156.516.156.766.156-.359.422-1.187 1.141-1.375 1.297l-.906.844C.781-.625.422-.062.422.016c0 .094.109.094.125.094.078 0 .094-.016.156-.125.234-.359.531-.625.859-.625.219 0 .328.094.578.375.156.219.344.375.625.375 1 0 1.578-1.266 1.578-1.531 0-.047-.047-.109-.125-.109-.094 0-.109.063-.141.141-.234.641-.875.828-1.203.828-.187 0-.375-.062-.578-.125-.344-.125-.5-.172-.703-.172-.016 0-.172 0-.266.031zm0 0" class="C"/></symbol><symbol id="L" class="B"><path d="M.453 1.219c-.078.344-.109.406-.547.406-.109 0-.219 0-.219.188 0 .078.047.125.125.125l.828-.031 1 .031c.047 0 .172 0 .172-.203 0-.109-.094-.109-.234-.109-.5 0-.5-.062-.5-.156 0-.125.422-1.75.484-2 .125.297.406.641.922.641 1.156 0 2.406-1.453 2.406-2.922 0-.937-.578-1.594-1.328-1.594-.5 0-.984.359-1.312.75a.87.87 0 0 0-.891-.75c-.469 0-.656.391-.734.563a3.92 3.92 0 0 0-.312.969c0 .109.094.109.109.109.109 0 .109-.016.172-.234.172-.703.375-1.187.734-1.187.172 0 .313.078.313.453 0 .234-.031.344-.078.516zm1.75-4.328c.063-.266.344-.547.516-.703.359-.297.641-.375.813-.375.391 0 .641.344.641.938s-.328 1.734-.516 2.109c-.344.703-.812 1.031-1.187 1.031-.656 0-.781-.828-.781-.891 0-.016 0-.031.031-.156zm0 0" class="C"/></symbol><symbol id="M" class="B"><path d="M.953-2.297c.047 0 .266 0 .266-.203 0-.187-.219-.187-.266-.187V-4c0-.156 0-.344-.203-.344S.547-4.156.547-4v3.016c0 .156 0 .344.203.344s.203-.187.203-.344zm0 0" class="C"/></symbol><symbol id="N" class="B"><path d="M8.313-2.297c-.547.422-.812.828-.891.969-.453.688-.531 1.313-.531 1.313 0 .125.125.125.203.125.156 0 .172-.016.219-.203.219-.969.813-1.812 1.938-2.266.125-.047.156-.062.156-.141 0-.062-.062-.094-.078-.109-.453-.156-1.656-.656-2.031-2.328-.031-.125-.047-.156-.203-.156-.078 0-.203 0-.203.125 0 .016.094.641.5 1.313a4.34 4.34 0 0 0 .922.969H.906c-.172 0-.359 0-.359.188 0 .203.188.203.359.203zm0 0" class="C"/></symbol></defs><g class="D"><use xlink:href="#A" x="14.944" y="12.553"/><use xlink:href="#H" x="34.205" y="12.553"/><use xlink:href="#I" x="39.899" y="12.553"/><use xlink:href="#J" x="44.33" y="12.553"/><use xlink:href="#J" x="48.751" y="12.553"/><use xlink:href="#J" x="53.183" y="12.553"/><use xlink:href="#I" x="57.614" y="12.553"/><use xlink:href="#K" x="62.036" y="12.553"/></g><path d="M75.609 17.934V3.586" fill="none" stroke-width=".398" stroke="rgb(0%,0%,0%)" stroke-miterlimit="10"/><g class="D"><use xlink:href="#L" x="85.773" y="12.553"/><use xlink:href="#B" x="90.785" y="12.553"/><use xlink:href="#H" x="93.553" y="12.553"/><use xlink:href="#I" x="99.247" y="12.553"/><use xlink:href="#J" x="103.678" y="12.553"/><use xlink:href="#J" x="108.099" y="12.553"/><use xlink:href="#J" x="112.531" y="12.553"/><use xlink:href="#I" x="116.962" y="12.553"/><use xlink:href="#K" x="121.384" y="12.553"/><use xlink:href="#C" x="126.457" y="12.553"/><use xlink:href="#D" x="14.39" y="30.486"/><use xlink:href="#E" x="35.865" y="30.486"/><use xlink:href="#H" x="39.74" y="30.486"/><use xlink:href="#I" x="45.434" y="30.486"/><use xlink:href="#J" x="49.865" y="30.486"/><use xlink:href="#J" x="54.286" y="30.486"/><use xlink:href="#J" x="58.718" y="30.486"/><use xlink:href="#I" x="63.149" y="30.486"/><use xlink:href="#K" x="67.571" y="30.486"/><use xlink:href="#F" x="72.644" y="30.486"/><use xlink:href="#M" x="79.286" y="30.486"/><use xlink:href="#N" x="79.286" y="30.486"/><use xlink:href="#L" x="92.016" y="30.486"/><use xlink:href="#B" x="97.028" y="30.486"/><use xlink:href="#H" x="99.796" y="30.486"/><use xlink:href="#I" x="105.49" y="30.486"/><use xlink:href="#J" x="109.921" y="30.486"/><use xlink:href="#J" x="114.342" y="30.486"/><use xlink:href="#J" x="118.774" y="30.486"/><use xlink:href="#I" x="123.205" y="30.486"/><use xlink:href="#K" x="127.627" y="30.486"/><use xlink:href="#C" x="132.7" y="30.486"/><use xlink:href="#M" x="155.393" y="30.486"/><use xlink:href="#N" x="155.393" y="30.486"/><use xlink:href="#G" x="167.016" y="30.486"/><use xlink:href="#E" x="173.931" y="30.486"/><use xlink:href="#A" x="177.805" y="30.486"/><use xlink:href="#F" x="182.787" y="30.486"/></g></svg>