<svg xmlns="http://www.w3.org/2000/svg" xmlns:xlink="http://www.w3.org/1999/xlink" width="811.725" height="440.172" viewBox="0 0 202.931 110.043"><style><![CDATA[.B{overflow:visible}.C{stroke:none}]]></style><defs><symbol id="A" class="B"><path d="M3.313-.75c.047.391.313.813.781.813.219 0 .828-.141.828-.953v-.562h-.25v.563c0 .578-.25.641-.359.641-.328 0-.375-.453-.375-.5v-1.984c0-.422 0-.812-.359-1.187-.391-.391-.891-.547-1.359-.547-.828 0-1.516.469-1.516 1.125a.44.44 0 0 0 .469.469c.281 0 .453-.203.453-.453 0-.125-.047-.453-.516-.453.281-.359.766-.469 1.078-.469.5 0 1.063.391 1.063 1.281v.359c-.516.031-1.203.063-1.828.359-.75.344-1 .859-1 1.297 0 .813.969 1.063 1.594 1.063A1.38 1.38 0 0 0 3.313-.75zM3.25-2.391v1c0 .938-.719 1.281-1.172 1.281-.484 0-.891-.344-.891-.844 0-.547.422-1.375 2.063-1.437zm0 0" class="C"/></symbol><symbol id="B" class="B"><path d="M1.719-3.766v-3.156l-1.437.109v.313c.703 0 .781.063.781.563V0h.25c0-.016.078-.156.359-.625.141.234.563.734 1.297.734 1.188 0 2.219-.984 2.219-2.266 0-1.266-.969-2.25-2.109-2.25-.781 0-1.203.469-1.359.641zm.031 2.625v-2.047c0-.187 0-.203.109-.359.391-.562.938-.641 1.172-.641.453 0 .813.266 1.047.641.266.406.281.969.281 1.391 0 .359-.016.953-.297 1.406-.219.313-.594.641-1.125.641-.453 0-.812-.234-1.047-.609-.141-.203-.141-.234-.141-.422zm0 0" class="C"/></symbol><symbol id="C" class="B"><path d="M1.906-.531c0-.281-.234-.531-.516-.531-.297 0-.531.25-.531.531 0 .297.234.531.531.531.281 0 .516-.234.516-.531zm0 0" class="C"/></symbol><symbol id="D" class="B"><path d="M1.172-2.172c0-1.625.813-2.047 1.344-2.047.094 0 .719.016 1.063.375-.406.031-.469.328-.469.453 0 .266.188.453.453.453a.43.43 0 0 0 .469-.469c0-.672-.766-1.062-1.531-1.062-1.25 0-2.156 1.078-2.156 2.313 0 1.281.984 2.266 2.141 2.266a1.66 1.66 0 0 0 1.656-1.297c0-.094-.109-.094-.141-.094-.078 0-.109.031-.125.094-.281.922-.937 1.047-1.297 1.047-.531 0-1.406-.422-1.406-2.031zm0 0" class="C"/></symbol><symbol id="E" class="B"><path d="M3.781-.547v.656L5.25 0v-.312c-.687 0-.781-.062-.781-.562v-6.047l-1.422.109v.313c.688 0 .766.063.766.563v2.156c-.281-.359-.719-.625-1.25-.625-1.172 0-2.219.984-2.219 2.266 0 1.266.969 2.25 2.109 2.25.641 0 1.078-.344 1.328-.656zm0-2.672v2.047c0 .172 0 .188-.109.359-.297.484-.734.703-1.172.703-.453 0-.812-.266-1.047-.641-.25-.406-.281-.969-.281-1.391 0-.359.016-.953.297-1.406.219-.312.594-.641 1.141-.641.344 0 .766.156 1.063.594.109.172.109.188.109.375zm0 0" class="C"/></symbol><symbol id="F" class="B"><path d="M1.109-2.516C1.172-4 2.016-4.25 2.359-4.25c1.016 0 1.125 1.344 1.125 1.734zm0 .219h2.781c.219 0 .25 0 .25-.219 0-.984-.547-1.953-1.781-1.953-1.156 0-2.078 1.031-2.078 2.281C.281-.859 1.328.109 2.469.109 3.688.109 4.141-1 4.141-1.187c0-.094-.078-.125-.141-.125-.078 0-.109.063-.125.141C3.531-.141 2.625-.141 2.531-.141c-.5 0-.891-.297-1.125-.672-.297-.469-.297-1.125-.297-1.484zm0 0" class="C"/></symbol><symbol id="G" class="B"><path d="M1.359-.781c0 .359-.031.469-.797.469H.328V0h5.75L6.5-2.578h-.25C6-1.031 5.766-.312 4.063-.312H2.734c-.469 0-.484-.062-.484-.391v-2.672h.891c.969 0 1.078.328 1.078 1.172h.25v-2.641h-.25c0 .859-.109 1.172-1.078 1.172H2.25v-2.406c0-.328.016-.391.484-.391h1.281c1.531 0 1.797.547 1.953 1.938h.25l-.281-2.25H.328v.313h.234c.766 0 .797.109.797.469zm0 0" class="C"/></symbol><symbol id="H" class="B"><path d="M3.297 2.391c0-.031 0-.047-.172-.219C1.891.922 1.563-.969 1.563-2.5c0-1.734.375-3.469 1.609-4.703.125-.125.125-.141.125-.172 0-.078-.031-.109-.094-.109-.109 0-1 .688-1.594 1.953C1.109-4.437.984-3.328.984-2.5c0 .781.109 1.984.656 3.125C2.25 1.844 3.094 2.5 3.203 2.5c.063 0 .094-.031.094-.109zm0 0" class="C"/></symbol><symbol id="I" class="B"><path d="M2.031-.016c0-.625-.25-1.047-.641-1.047-.359 0-.531.281-.531.531 0 .266.172.531.531.531a.58.58 0 0 0 .375-.141l.016-.016c.016 0 .016 0 .016.141 0 .641-.266 1.25-.703 1.719-.062.063-.078.078-.078.109 0 .078.047.109.094.109.125 0 .922-.781.922-1.937zm0 0" class="C"/></symbol><symbol id="J" class="B"><path d="M2.875-2.5c0-.766-.109-1.969-.656-3.109C1.625-6.828.766-7.484.672-7.484c-.062 0-.109.047-.109.109 0 .031 0 .047.188.234.984.984 1.547 2.563 1.547 4.641 0 1.719-.359 3.469-1.594 4.719-.141.125-.141.141-.141.172 0 .063.047.109.109.109.094 0 1-.687 1.578-1.953.516-1.094.625-2.203.625-3.047zm0 0" class="C"/></symbol><symbol id="K" class="B"><path d="M.453 1.219c-.078.344-.109.406-.547.406-.109 0-.219 0-.219.188 0 .078.047.125.125.125l.828-.031 1 .031c.047 0 .172 0 .172-.203 0-.109-.094-.109-.234-.109-.5 0-.5-.062-.5-.156 0-.125.422-1.75.484-2 .125.297.406.641.922.641 1.156 0 2.406-1.453 2.406-2.922 0-.937-.578-1.594-1.328-1.594-.5 0-.984.359-1.312.75a.87.87 0 0 0-.891-.75c-.469 0-.656.391-.734.563a3.92 3.92 0 0 0-.312.969c0 .109.094.109.109.109.109 0 .109-.016.172-.234.172-.703.375-1.187.734-1.187.172 0 .313.078.313.453 0 .234-.031.344-.078.516zm1.75-4.328c.063-.266.344-.547.516-.703.359-.297.641-.375.813-.375.391 0 .641.344.641.938s-.328 1.734-.516 2.109c-.344.703-.812 1.031-1.187 1.031-.656 0-.781-.828-.781-.891 0-.016 0-.031.031-.156zm0 0" class="C"/></symbol><symbol id="L" class="B"><path d="M4.5-4.297c0-.047-.031-.094-.094-.094-.109 0-.516.391-.672.688-.219-.547-.609-.703-.937-.703-1.172 0-2.391 1.469-2.391 2.922C.406-.516.984.109 1.719.109c.422 0 .813-.234 1.172-.594l-.453 1.781c-.078.281-.156.313-.719.328-.125 0-.219 0-.219.203 0 0 0 .109.125.109l1-.031 1.031.031c.047 0 .172 0 .172-.203 0-.109-.094-.109-.266-.109-.469 0-.469-.062-.469-.156 0-.078.016-.141.031-.219zM1.75-.109c-.609 0-.641-.766-.641-.937 0-.484.281-1.562.453-1.984.313-.734.828-1.156 1.234-1.156.656 0 .797.813.797.875a48.63 48.63 0 0 1-.578 2.281c-.156.281-.719.922-1.266.922zm0 0" class="C"/></symbol><symbol id="M" class="B"><path d="M.875-.594l-.094.438c0 .172.141.266.297.266.125 0 .297-.078.375-.281.016-.031.344-1.391.391-1.578l.313-1.297a3.19 3.19 0 0 1 .563-.812c.078-.062.375-.328.797-.328.266 0 .406.125.422.125-.297.047-.516.281-.516.547 0 .156.109.344.375.344s.547-.234.547-.594c0-.344-.312-.641-.828-.641-.641 0-1.078.484-1.266.766-.094-.453-.453-.766-.922-.766-.453 0-.641.391-.734.563-.172.344-.297.938-.297.969 0 .109.094.109.109.109.109 0 .109-.016.172-.234.172-.703.375-1.187.734-1.187.156 0 .297.078.297.453 0 .219-.031.328-.156.844zm0 0" class="C"/></symbol><symbol id="N" class="B"><path d="M2.031-.016c0-.656-.25-1.047-.641-1.047-.328 0-.531.25-.531.531 0 .266.203.531.531.531a.58.58 0 0 0 .344-.125c.031-.031.047-.031.047-.031.016 0 .016 0 .016.141 0 .75-.344 1.344-.672 1.672-.109.109-.109.125-.109.156 0 .078.047.109.094.109.109 0 .922-.766.922-1.937zm0 0" class="C"/></symbol><symbol id="O" class="B"><path d="M1.906-.531c0-.281-.234-.531-.516-.531-.297 0-.531.25-.531.531 0 .297.234.531.531.531.281 0 .516-.234.516-.531zm0 0" class="C"/></symbol><symbol id="P" class="B"><path d="M3.891-3.734c-.266.016-.469.234-.469.453a.29.29 0 0 0 .313.297c.219 0 .453-.172.453-.562 0-.453-.422-.859-1.187-.859-1.312 0-1.687 1.016-1.687 1.453 0 .781.734.922 1.031.984.516.109 1.031.219 1.031.766 0 .25-.219 1.094-1.422 1.094-.141 0-.906 0-1.141-.531.391.047.641-.25.641-.531 0-.219-.172-.344-.375-.344-.266 0-.562.203-.562.656 0 .563.578.969 1.422.969 1.625 0 2.016-1.203 2.016-1.656a.97.97 0 0 0-.312-.719c-.266-.281-.562-.344-1-.422-.359-.078-.75-.156-.75-.609 0-.281.234-.891 1.109-.891.25 0 .75.078.891.453zm0 0" class="C"/></symbol><symbol id="Q" class="B"><path d="M5.188-3.266c.172 0 .344 0 .344-.187 0-.203-.172-.203-.344-.203H.953v-2.906c0-.172 0-.359-.203-.359s-.203.219-.203.359v6.203c0 .156 0 .359.203.359s.203-.172.203-.359v-2.906zm0 0" class="C"/></symbol></defs><g fill="rgb(0%,0%,0%)"><use xlink:href="#A" x="14.944" y="12.553"/><use xlink:href="#K" x="35.866" y="12.553"/><use xlink:href="#B" x="14.39" y="30.486"/><use xlink:href="#L" x="35.866" y="30.486"/><use xlink:href="#C" x="17.158" y="42.895"/><use xlink:href="#C" x="17.158" y="46.88"/><use xlink:href="#C" x="17.158" y="50.865"/><use xlink:href="#C" x="35.866" y="42.895"/><use xlink:href="#C" x="35.866" y="46.88"/><use xlink:href="#C" x="35.866" y="50.865"/><use xlink:href="#D" x="15.497" y="68.798"/><use xlink:href="#M" x="35.866" y="68.798"/><use xlink:href="#E" x="14.39" y="86.73"/><use xlink:href="#K" x="35.866" y="86.73"/><use xlink:href="#N" x="40.878" y="86.73"/><use xlink:href="#L" x="45.31" y="86.73"/><use xlink:href="#N" x="50.116" y="86.73"/><use xlink:href="#O" x="54.537" y="86.73"/><use xlink:href="#O" x="58.968" y="86.73"/><use xlink:href="#O" x="63.39" y="86.73"/><use xlink:href="#N" x="67.821" y="86.73"/><use xlink:href="#M" x="72.252" y="86.73"/><use xlink:href="#Q" x="79.789" y="86.73"/><use xlink:href="#P" x="88.644" y="86.73"/><use xlink:href="#F" x="15.497" y="104.663"/><use xlink:href="#P" x="35.866" y="104.663"/><use xlink:href="#Q" x="113.239" y="104.663"/><use xlink:href="#G" x="120.989" y="104.663"/><use xlink:href="#H" x="131.087" y="104.663"/><use xlink:href="#A" x="134.962" y="104.663"/><use xlink:href="#I" x="139.943" y="104.663"/><use xlink:href="#B" x="146.038" y="104.663"/><use xlink:href="#I" x="151.573" y="104.663"/><use xlink:href="#C" x="157.658" y="104.663"/><use xlink:href="#C" x="162.08" y="104.663"/><use xlink:href="#C" x="166.511" y="104.663"/><use xlink:href="#I" x="170.942" y="104.663"/><use xlink:href="#D" x="177.028" y="104.663"/><use xlink:href="#I" x="181.455" y="104.663"/><use xlink:href="#E" x="187.54" y="104.663"/><use xlink:href="#J" x="193.075" y="104.663"/></g></svg>